<?xml version="1.0" encoding="UTF-8"?>
<svg width="197px" height="170px" viewBox="0 0 197 170" version="1.1" xmlns="http://www.w3.org/2000/svg" xmlns:xlink="http://www.w3.org/1999/xlink">
    <!-- Generator: Sketch 42 (36781) - http://www.bohemiancoding.com/sketch -->
    <title>Imported Layers</title>
    <desc>Created with Sketch.</desc>
    <defs></defs>
    <g id="Page-1" stroke="none" stroke-width="1" fill="none" fill-rule="evenodd">
        <path d="M151.034043,37.8407213 C151.034043,26.7104262 142.452482,20.4720984 132.697872,20.4720984 C119.377305,20.4720984 112.487943,31.3770492 112.67234,44.2131148 L87.3489362,44.2131148 C88.2042553,19.9672131 102.920567,1.79847541 126.123404,0 L75.8184397,0 L75.8184397,132.657885 L97.6992908,169.843967 L118.550355,134.470623 C97.0666667,129.588639 83.6950355,114.098361 84.1602837,88.4262295 L109.48227,88.4262295 C110.021277,101.262295 116.592908,112.924574 130.643972,113.86018 L149.441135,80.0728033 C143.526241,73.1998033 131.137589,73.1070984 122.62695,73.1070984 L122.62695,54.2466393 C135.392908,55.1879508 151.034043,52.9230984 151.034043,37.8407213 L151.034043,37.8407213 Z M176.712057,34.4306066 L196.470922,0 L139.241135,0 C157.707801,1.79847541 175.719149,14.323623 176.712057,34.4306066 Z M50.2865248,84.3315246 L50.2865248,47.0655738 L27.4808511,47.0655738 L50.2865248,84.3315246 L50.2865248,84.3315246 Z M15.412766,26.8573279 C34.3617021,27.0926557 51.6468085,18.8804262 54.7390071,0 L0,0 L15.412766,26.8573279 L15.412766,26.8573279 Z" id="Imported-Layers" fill="#000000"></path>
    </g>
</svg>